{"glyphs":{":":{"x_min":0,"x_max":167,"ha":167,"o":"m 30 437 q 30 458 45 474 q 60 490 83 490 q 106 490 121 475 q 136 459 136 437 q 136 415 121 399 q 106 384 83 384 q 60 384 45 400 q 30 417 30 437 z m 30 43 q 30 64 45 80 q 60 96 83 96 q 106 96 121 81 q 136 65 136 43 q 136 21 121 6 q 106 -10 83 -10 q 62 -10 46 6 q 30 21 30 43 z"},"$":{"x_min":0,"x_max":490,"ha":490,"o":"m 416 667 l 442 569 l 433 569 q 369 687 263 700 l 263 402 q 354 380 415 330 q 476 279 476 188 q 476 113 422 57 q 368 0 262 -9 l 262 -115 l 242 -115 l 242 -10 q 148 -10 51 37 l 14 197 l 22 197 q 48 118 108 69 q 168 21 242 15 l 243 328 q 116 369 79 428 q 42 487 42 541 q 42 614 98 667 q 153 719 243 719 l 243 770 l 264 770 l 264 719 q 346 711 416 667 z m 243 409 l 243 701 q 179 703 132 668 q 86 633 86 570 q 86 540 97 514 q 108 488 130 468 q 152 447 189 430 q 226 414 236 411 z m 263 322 l 262 15 q 327 15 379 59 q 431 103 431 167 q 431 228 388 263 q 345 297 263 322 z"},"?":{"x_min":0,"x_max":354,"ha":354,"o":"m 129 188 l 119 440 q 193 453 235 490 q 276 527 276 584 q 276 632 242 672 q 208 711 152 711 q 110 711 73 689 q 37 667 16 619 l 8 619 l 31 704 q 95 730 151 730 q 238 730 290 682 q 342 634 342 555 q 342 431 210 382 q 170 368 161 358 q 151 349 149 319 l 139 188 z m 82 42 q 82 64 97 80 q 113 95 135 95 q 157 95 173 80 q 188 64 188 42 q 188 21 172 5 q 156 -11 135 -11 q 113 -11 98 4 q 82 20 82 42 z"},"<":{"x_min":0,"x_max":549,"ha":549,"o":"m 26 230 l 26 292 l 523 522 l 523 460 l 90 261 l 523 62 l 523 0 z"},"'":{"x_min":0,"x_max":167,"ha":167,"o":"m 20 461 l 17 465 q 71 504 87 544 q 103 584 103 612 q 103 631 92 631 q 90 631 83 629 q 76 627 71 627 q 49 627 34 642 q 18 656 18 677 q 18 698 33 714 q 48 730 73 730 q 104 730 126 704 q 148 678 148 632 q 148 580 120 539 q 91 499 20 461 z"},"=":{"x_min":0,"x_max":549,"ha":549,"o":"m 537 390 l 537 335 l 11 335 l 11 390 z m 537 196 l 537 141 l 11 141 l 11 196 z"},"a":{"x_min":0,"x_max":688,"ha":688,"o":""},"L":{"x_min":0,"x_max":542,"ha":542,"o":"m 12 0 l 12 7 q 46 7 56 20 q 66 32 66 63 l 66 652 q 66 683 58 697 q 50 711 11 712 l 11 719 l 204 719 l 204 712 q 177 712 167 705 q 156 698 152 689 q 149 680 149 647 l 149 142 q 149 77 180 51 q 211 24 287 24 l 375 24 q 438 24 468 55 q 498 86 501 173 l 508 173 l 508 0 z"},"3":{"x_min":0,"x_max":563,"ha":563,"o":"m 70 580 l 96 677 q 151 710 192 720 q 232 730 276 730 q 380 730 426 689 q 471 649 471 594 q 471 541 436 500 q 400 460 326 423 l 326 421 q 410 410 456 352 q 502 294 502 218 q 502 119 428 54 q 354 -10 256 -10 q 189 -10 137 15 q 86 39 34 84 l 34 110 q 78 74 127 45 q 177 16 240 16 q 314 16 367 66 q 419 115 419 196 q 419 271 369 320 q 320 370 233 370 q 209 370 179 365 l 179 385 q 184 388 189 388 q 306 420 347 464 q 388 509 388 572 q 388 636 351 673 q 314 711 259 711 q 210 711 167 681 q 125 652 78 579 z"},";":{"x_min":0,"x_max":167,"ha":167,"o":"m 30 437 q 30 458 45 474 q 60 490 83 490 q 106 490 121 475 q 136 459 136 437 q 136 415 121 399 q 106 384 83 384 q 60 384 45 400 q 30 417 30 437 z m 21 -177 l 17 -173 q 68 -137 86 -97 q 103 -57 103 -26 q 103 -7 93 -7 q 92 -7 82 -9 q 78 -10 74 -11 l 71 -11 l 71 -11 q 50 -11 34 3 q 18 18 18 39 q 18 60 33 76 q 48 92 73 92 q 103 92 125 67 q 148 42 148 -6 q 148 -78 104 -118 q 61 -158 21 -177 z"},"J":{"x_min":0,"x_max":260,"ha":260,"o":"m 34 719 l 227 719 l 227 712 q 190 712 181 697 q 172 682 172 648 l 172 36 q 172 -51 166 -94 q 160 -137 140 -170 q 119 -202 85 -222 q 52 -241 7 -241 q -36 -241 -81 -226 l -80 -218 q -67 -222 -41 -222 q 22 -222 56 -176 q 89 -129 89 -17 l 89 645 q 89 689 78 701 q 67 712 34 712 z"},"V":{"x_min":0,"x_max":688,"ha":688,"o":"m 351 -11 l 342 -11 l 86 622 q 59 689 41 700 q 23 712 5 712 l 5 719 l 171 719 l 171 712 q 149 713 149 695 q 149 688 152 679 l 375 125 l 597 679 q 601 690 601 697 q 601 713 575 712 l 575 719 l 683 719 l 683 712 q 672 712 659 709 q 647 706 634 684 q 621 662 620 660 z"},"\"":{"x_min":0,"x_max":333,"ha":333,"o":"m 20 461 l 17 465 q 71 504 87 544 q 103 584 103 612 q 103 631 92 631 q 90 631 83 629 q 76 627 71 627 q 49 627 34 642 q 18 656 18 677 q 18 698 33 714 q 48 730 73 730 q 104 730 126 704 q 148 678 148 632 q 148 580 120 539 q 91 499 20 461 z m 187 461 l 183 465 q 226 495 248 534 q 269 574 269 612 q 269 631 259 631 q 257 631 250 629 q 243 627 238 627 q 216 627 201 642 q 185 656 185 677 q 185 698 200 714 q 215 730 240 730 q 270 730 292 704 q 315 679 315 632 q 315 580 287 539 q 258 499 187 461 z"},"7":{"x_min":0,"x_max":542,"ha":542,"o":"m 13 596 l 33 719 l 527 719 l 182 -9 l 130 -9 l 445 656 l 169 656 q 116 656 74 646 q 32 636 21 595 z"},"S":{"x_min":0,"x_max":479,"ha":479,"o":"m 384 710 l 418 620 l 412 619 q 412 620 385 648 q 358 676 323 692 q 288 707 244 707 q 170 707 127 665 q 84 623 84 563 q 84 523 104 494 q 125 464 189 439 q 300 402 341 383 q 381 364 419 319 q 457 274 457 204 q 457 175 450 148 q 443 122 428 97 q 413 72 392 52 q 371 32 349 21 q 327 11 279 5 q 232 0 217 0 l 25 0 l 25 209 l 32 209 q 33 105 81 64 q 129 23 230 23 q 322 23 369 66 q 417 110 417 171 q 417 208 400 234 q 384 260 354 280 q 324 300 241 328 q 159 357 125 379 q 92 400 69 444 q 47 488 47 533 q 47 617 104 673 q 162 730 255 730 q 291 730 333 722 q 375 713 380 711 q 382 710 384 710 z"},"}":{"x_min":0,"x_max":480,"ha":480,"o":"m 69 678 l 69 695 q 152 684 202 628 q 253 572 253 505 q 253 481 247 453 l 236 401 q 230 370 230 354 q 230 321 257 289 q 284 258 342 249 l 342 230 q 285 223 258 191 q 230 159 230 125 q 230 101 238 69 q 253 9 253 -26 q 253 -92 204 -148 q 154 -204 69 -216 l 69 -198 q 180 -171 180 -83 q 180 -55 169 -8 q 157 40 157 70 q 157 116 190 162 q 224 209 302 237 l 302 239 q 232 264 195 311 q 157 359 157 409 q 157 446 169 486 q 180 527 180 562 q 180 651 69 678 z"},"Z":{"x_min":0,"x_max":708,"ha":708,"o":"m 689 113 l 689 0 l 7 0 l 565 692 l 191 692 q 145 692 127 680 q 110 668 103 621 l 96 621 l 100 719 l 692 719 l 132 27 l 609 27 q 650 27 665 44 q 679 61 682 113 z"},"x":{"x_min":0,"x_max":677,"ha":677,"o":""},")":{"x_min":0,"x_max":365,"ha":365,"o":"m 46 -241 l 29 -214 q 166 -140 230 -23 q 294 94 294 246 q 294 557 29 703 l 46 730 q 176 665 251 538 q 327 411 327 242 q 327 85 256 -42 q 184 -170 46 -241 z"},"&":{"x_min":0,"x_max":906,"ha":906,"o":"m 474 683 l 505 601 l 495 601 q 455 650 402 680 q 349 710 299 710 q 253 710 230 684 q 207 658 207 626 q 207 567 303 472 l 622 157 q 658 206 671 281 q 685 356 685 397 q 685 427 671 435 q 657 443 626 445 l 619 446 l 603 445 l 603 453 l 756 454 l 756 445 q 731 448 723 432 q 714 416 706 360 q 686 213 636 143 l 710 70 q 763 17 818 17 q 857 17 900 42 l 905 35 q 839 -11 763 -11 q 683 -11 616 55 q 616 57 611 62 l 587 85 q 485 -11 324 -11 q 169 -11 94 68 q 18 147 18 242 q 18 325 69 385 q 120 446 209 463 q 184 499 170 529 q 157 558 157 592 q 157 645 195 688 q 233 730 316 730 q 364 730 400 717 q 436 705 474 683 z m 573 98 l 299 364 q 296 366 264 400 q 233 433 223 447 q 76 413 76 300 q 76 199 171 112 q 266 26 387 26 q 451 26 486 41 q 521 57 566 93 q 568 95 570 96 q 573 98 573 98 z"},"_":{"x_min":0,"x_max":500,"ha":500,"o":"m -6 -125 l -6 -74 l 506 -74 l 506 -125 z"},"v":{"x_min":0,"x_max":688,"ha":688,"o":""},"O":{"x_min":0,"x_max":813,"ha":813,"o":"m 436 730 q 587 730 684 638 q 780 546 780 408 q 780 231 668 110 q 557 -11 373 -11 q 224 -11 128 86 q 33 184 33 321 q 33 413 79 510 q 125 607 217 669 q 310 730 436 730 z m 433 27 q 507 27 580 67 q 652 106 693 176 q 735 246 735 320 q 735 424 679 510 q 623 595 534 644 q 445 692 369 692 q 262 692 175 611 q 88 531 88 411 q 88 258 194 143 q 301 27 433 27 z"},"(":{"x_min":0,"x_max":365,"ha":365,"o":"m 319 730 l 336 703 q 71 559 71 243 q 71 98 134 -19 q 196 -136 336 -214 l 319 -241 q 190 -178 114 -49 q 38 81 38 247 q 38 404 110 531 q 181 658 319 730 z"},"C":{"x_min":0,"x_max":771,"ha":771,"o":"m 658 683 l 685 607 l 678 607 q 574 711 432 711 q 285 711 195 624 q 104 536 104 412 q 104 335 144 236 q 185 136 271 72 q 358 8 482 8 q 563 8 641 34 q 719 60 757 104 l 763 102 l 713 25 q 591 -1 554 -6 q 518 -11 457 -11 q 231 -11 134 94 q 36 198 36 344 q 36 443 86 534 q 136 625 230 677 q 325 730 446 730 q 506 730 551 719 q 595 708 624 696 l 656 684 q 658 684 658 683 z"},"W":{"x_min":0,"x_max":1031,"ha":1031,"o":"m 729 -11 l 718 -11 l 519 537 l 324 -11 l 313 -11 l 79 631 q 65 670 49 691 q 33 712 2 712 l 2 719 l 172 719 l 172 712 q 147 712 147 694 q 147 683 155 661 l 345 138 l 502 580 l 487 622 q 467 677 448 695 q 430 712 407 712 l 407 719 l 575 719 l 575 712 q 551 712 551 691 q 551 685 561 657 l 751 136 l 941 667 q 941 668 942 669 l 949 694 q 949 712 924 712 l 924 719 l 1029 719 l 1029 712 q 986 711 961 642 z"},"A":{"x_min":0,"x_max":688,"ha":688,"o":"m 418 331 l 208 331 l 99 59 q 88 30 88 23 q 88 7 112 7 l 112 0 l 5 0 l 5 7 q 26 7 41 17 q 56 28 73 72 l 334 730 l 346 730 l 603 94 q 603 89 623 48 q 643 7 683 7 l 683 0 l 515 0 l 515 7 q 538 7 538 25 q 538 37 527 64 q 525 66 523 70 q 522 75 522 75 z m 215 351 l 409 351 l 312 596 z"},"f":{"x_min":0,"x_max":500,"ha":500,"o":""},"Q":{"x_min":0,"x_max":813,"ha":813,"o":"m 482 2 q 482 0 497 -9 l 572 -62 q 634 -106 687 -134 q 740 -162 793 -177 q 846 -192 898 -192 q 918 -192 954 -187 l 955 -193 q 924 -208 882 -217 q 839 -227 818 -227 q 740 -227 613 -169 q 487 -112 375 -11 q 213 -11 123 91 q 33 192 33 320 q 33 417 80 512 q 126 607 218 668 q 310 730 436 730 q 588 730 684 637 q 780 545 780 407 q 780 270 704 154 q 628 38 482 2 z m 433 26 q 507 26 580 66 q 652 105 693 175 q 735 245 735 319 q 735 426 677 512 q 619 599 530 646 q 441 692 369 692 q 262 692 175 611 q 88 531 88 411 q 88 259 194 143 q 300 26 433 26 z"},"w":{"x_min":0,"x_max":1031,"ha":1031,"o":""},"-":{"x_min":0,"x_max":250,"ha":250,"o":"m 22 339 l 22 380 l 228 380 l 228 339 z"},"E":{"x_min":0,"x_max":542,"ha":542,"o":"m 39 711 l 39 719 l 491 719 l 491 620 l 484 620 q 469 675 459 685 q 449 695 410 695 l 173 695 l 173 372 l 393 372 q 426 372 435 378 q 443 384 444 396 l 451 396 l 451 328 l 444 328 q 441 342 432 347 q 423 352 399 352 l 173 352 l 173 130 q 173 80 182 57 q 191 35 212 30 q 232 24 273 24 l 400 24 q 460 24 477 28 q 494 32 506 45 q 518 57 524 99 l 531 99 l 531 0 l 39 0 l 39 7 q 64 8 77 16 q 90 24 90 58 l 90 639 q 90 679 83 695 q 76 711 39 711 z"},"s":{"x_min":0,"x_max":479,"ha":479,"o":""},">":{"x_min":0,"x_max":549,"ha":549,"o":"m 523 292 l 523 230 l 26 0 l 26 62 l 459 261 l 26 460 l 26 522 z"},"l":{"x_min":0,"x_max":542,"ha":542,"o":""},"8":{"x_min":0,"x_max":582,"ha":582,"o":"m 247 377 q 177 420 154 438 q 132 455 112 488 q 93 521 93 561 q 93 627 149 680 q 206 732 306 732 q 398 732 449 692 q 499 652 499 588 q 499 479 347 408 q 447 348 490 301 q 532 253 532 185 q 532 97 460 43 q 387 -10 282 -10 q 180 -10 115 39 q 50 88 50 167 q 50 233 96 281 q 143 329 247 377 z m 326 420 q 426 477 426 567 q 426 626 383 666 q 340 706 278 706 q 225 706 184 678 q 142 651 142 598 q 142 565 158 541 q 174 517 232 478 q 290 439 326 420 z m 278 361 l 269 366 q 215 342 170 300 q 125 257 125 194 q 125 126 179 69 q 232 12 307 12 q 365 12 416 52 q 467 91 467 155 q 467 206 434 249 q 400 293 278 361 z"},"\\":{"x_min":0,"x_max":281,"ha":281,"o":"m -6 717 l 353 0 l 287 0 l -72 717 z"},"e":{"x_min":0,"x_max":542,"ha":542,"o":""},"b":{"x_min":0,"x_max":583,"ha":583,"o":""},"%":{"x_min":0,"x_max":802,"ha":802,"o":"m 153 346 q 91 346 48 392 q 5 438 5 523 q 5 617 51 675 q 97 733 167 733 q 232 733 273 687 q 314 641 314 554 q 314 461 268 404 q 222 346 153 346 z m 169 366 q 205 366 230 402 q 256 438 256 508 q 256 608 225 661 q 193 713 151 713 q 116 713 89 680 q 62 646 62 569 q 62 478 94 422 q 125 366 169 366 z m 149 0 l 619 731 l 651 719 l 182 -12 z m 637 -5 q 573 -5 531 41 q 488 87 488 171 q 488 264 534 323 q 580 381 651 381 q 716 381 757 334 q 797 288 797 202 q 797 113 753 54 q 708 -5 637 -5 z m 653 14 q 688 14 714 50 q 740 86 740 156 q 740 251 710 306 q 680 361 634 361 q 600 361 573 328 q 546 295 546 217 q 546 122 578 68 q 610 14 653 14 z"},"m":{"x_min":0,"x_max":885,"ha":885,"o":""},"#":{"x_min":0,"x_max":500,"ha":500,"o":"m 207 466 l 332 466 l 360 673 l 407 673 l 379 466 l 481 466 l 475 420 l 372 420 l 348 238 l 451 238 l 445 192 l 341 192 l 313 -16 l 266 -16 l 294 192 l 170 192 l 141 -16 l 94 -16 l 123 192 l 20 192 l 26 238 l 129 238 l 154 420 l 54 420 l 60 466 l 160 466 l 189 673 l 236 673 z m 325 420 l 201 420 l 176 238 l 301 238 z"},",":{"x_min":0,"x_max":167,"ha":167,"o":"m 21 -177 l 17 -173 q 68 -137 86 -97 q 103 -57 103 -26 q 103 -7 93 -7 q 92 -7 82 -9 q 78 -10 74 -11 l 71 -11 l 71 -11 q 50 -11 34 3 q 18 18 18 39 q 18 60 33 76 q 48 92 73 92 q 103 92 125 67 q 148 42 148 -6 q 148 -78 104 -118 q 61 -158 21 -177 z"},"n":{"x_min":0,"x_max":802,"ha":802,"o":""},"h":{"x_min":0,"x_max":740,"ha":740,"o":""},"z":{"x_min":0,"x_max":708,"ha":708,"o":""},"B":{"x_min":0,"x_max":583,"ha":583,"o":"m 41 712 l 41 719 l 228 719 q 310 719 344 712 q 378 706 410 686 q 441 667 463 631 q 485 594 485 548 q 485 457 395 404 q 473 391 512 340 q 552 289 552 216 q 552 148 518 92 q 484 37 440 18 q 396 0 318 0 l 40 0 l 40 7 q 73 7 83 20 q 92 34 92 89 l 92 631 q 92 670 90 684 q 87 698 75 705 q 63 712 41 712 z m 175 704 l 175 388 l 262 388 q 351 388 380 439 q 409 490 409 540 q 409 594 387 631 q 364 667 321 686 q 278 704 194 704 z m 231 373 l 175 373 l 175 145 q 175 98 178 83 q 182 69 195 54 q 208 38 237 29 q 266 19 320 19 q 404 19 438 58 q 473 97 473 173 q 473 252 442 302 q 412 352 373 362 q 334 373 231 373 z"},"K":{"x_min":0,"x_max":823,"ha":823,"o":"m 29 719 l 235 719 l 235 712 q 201 713 188 702 q 174 690 174 642 l 174 366 l 601 687 q 614 696 614 703 q 614 712 585 712 l 585 719 l 740 719 l 740 712 q 682 710 626 669 l 254 391 l 625 109 q 625 108 626 108 q 627 107 628 106 q 629 106 630 106 q 703 51 743 29 q 784 7 819 7 l 819 0 l 574 0 l 574 7 q 607 7 607 14 q 607 21 580 41 l 174 350 l 174 83 q 174 36 180 25 q 187 15 198 10 q 209 5 234 7 l 234 0 l 29 0 l 29 7 q 70 5 80 19 q 91 34 91 80 l 91 638 q 91 686 80 700 q 70 714 29 712 z"},"R":{"x_min":0,"x_max":792,"ha":792,"o":"m 39 712 l 39 719 l 243 719 q 321 719 355 716 q 390 712 427 693 q 463 674 481 641 q 500 608 500 560 q 500 505 467 456 q 434 406 374 372 l 425 294 q 441 265 513 166 q 584 66 624 45 q 663 23 699 23 q 735 23 782 51 l 785 41 q 727 -7 633 -7 q 570 -7 525 30 q 480 67 369 233 q 368 234 368 235 l 296 346 l 232 344 l 174 344 l 174 69 q 174 36 183 21 q 191 7 225 7 l 225 0 l 39 0 l 39 7 q 74 8 82 21 q 91 35 91 75 l 91 647 q 91 675 83 693 q 76 711 39 712 z m 174 700 l 174 363 l 249 363 q 338 363 381 405 q 424 447 424 515 q 424 582 382 641 q 339 700 233 700 z"},"T":{"x_min":0,"x_max":604,"ha":604,"o":"m 605 744 l 571 657 l 564 657 q 566 665 566 678 q 566 689 558 693 q 550 696 532 696 l 344 696 l 344 80 q 344 42 350 28 q 356 14 367 10 q 377 7 401 7 l 401 0 l 206 0 l 206 7 q 243 9 252 21 q 261 33 261 70 l 261 696 l 81 696 q 54 696 45 693 q 37 689 37 677 q 37 670 41 657 l 34 657 l 0 744 l 7 744 q 16 727 24 723 q 33 719 61 719 l 539 719 q 567 719 580 723 q 592 727 598 744 z"},"P":{"x_min":0,"x_max":531,"ha":531,"o":"m 40 712 l 40 719 l 245 719 q 354 719 404 695 q 454 670 476 634 q 499 598 499 538 q 499 447 436 401 q 373 355 265 357 l 265 364 q 333 364 376 406 q 419 448 419 516 q 419 569 398 611 q 377 652 340 673 q 302 695 225 695 l 174 695 l 174 79 q 174 27 186 17 q 197 7 230 7 l 230 0 l 40 0 l 40 7 q 91 7 91 53 l 91 649 q 91 687 81 699 q 71 712 40 712 z"},"|":{"x_min":0,"x_max":200,"ha":200,"o":"m 65 673 l 135 673 l 135 -177 l 65 -177 z"},"t":{"x_min":0,"x_max":604,"ha":604,"o":""},"M":{"x_min":0,"x_max":885,"ha":885,"o":"m 697 719 l 810 719 l 810 712 q 753 709 753 652 q 753 640 756 618 l 831 73 q 838 32 846 21 q 855 9 882 7 l 882 0 l 720 0 l 720 7 q 752 6 752 38 q 752 45 749 67 l 676 595 l 418 0 l 413 0 l 154 594 l 81 63 q 79 51 79 35 q 79 7 112 7 l 112 0 l 2 0 l 2 7 q 27 7 34 13 q 41 20 45 33 q 49 46 51 63 l 133 644 q 113 692 93 702 q 73 712 54 712 l 54 719 l 190 719 l 443 131 z"},"g":{"x_min":0,"x_max":760,"ha":760,"o":""},"j":{"x_min":0,"x_max":260,"ha":260,"o":""},"i":{"x_min":0,"x_max":260,"ha":260,"o":""},"y":{"x_min":0,"x_max":573,"ha":573,"o":""},"@":{"x_min":0,"x_max":921,"ha":921,"o":"m 760 79 q 681 29 613 9 q 545 -11 464 -11 q 297 -11 180 89 q 62 190 62 334 q 62 497 191 614 q 319 730 506 730 q 651 730 750 648 q 850 566 850 438 q 850 332 784 245 q 718 158 635 158 q 589 158 563 183 q 537 207 538 273 q 516 210 481 184 q 446 158 407 158 q 350 158 311 197 q 271 235 271 302 q 271 389 339 463 q 406 537 488 537 q 567 537 587 453 l 610 524 l 683 524 q 602 273 602 238 q 602 219 616 202 q 630 184 656 184 q 711 184 768 258 q 824 331 824 436 q 824 564 726 633 q 628 702 511 702 q 360 702 242 595 q 123 489 123 335 q 123 191 225 102 q 326 12 479 12 q 543 12 617 34 q 691 56 747 97 z m 570 443 q 570 475 552 492 q 535 510 505 510 q 448 510 400 426 q 351 343 351 265 q 351 227 371 205 q 391 183 423 183 q 490 183 530 288 q 570 393 570 443 z"},".":{"x_min":0,"x_max":167,"ha":167,"o":"m 30 43 q 30 64 45 80 q 60 96 83 96 q 106 96 121 81 q 136 65 136 43 q 136 21 121 6 q 106 -10 83 -10 q 62 -10 46 6 q 30 21 30 43 z"},"p":{"x_min":0,"x_max":531,"ha":531,"o":""},"X":{"x_min":0,"x_max":677,"ha":677,"o":"m 612 719 l 612 712 q 582 715 558 682 q 558 682 557 681 q 556 679 555 678 l 551 673 q 549 670 549 669 l 544 664 l 361 406 l 580 90 q 616 35 635 20 q 654 5 672 7 l 672 0 l 493 0 l 493 7 q 516 5 516 23 q 516 37 501 59 l 310 334 l 117 65 q 117 64 106 48 q 93 32 93 20 q 93 5 117 7 l 117 0 l 10 0 l 10 7 q 33 7 51 25 l 59 34 l 292 360 l 77 670 q 77 677 59 695 q 40 714 17 712 l 17 719 l 198 719 l 198 712 q 169 712 169 696 q 169 684 187 658 l 344 432 l 513 669 q 514 669 521 683 q 528 696 528 699 q 528 708 523 710 q 518 712 503 712 l 503 719 z"},"*":{"x_min":0,"x_max":354,"ha":354,"o":"m 180 377 l 173 377 l 140 492 l 25 464 l 22 471 l 102 556 l 22 641 l 26 646 l 138 618 l 174 731 l 181 731 l 213 618 l 327 648 l 331 642 l 250 554 l 331 468 l 327 461 l 214 492 z m 235 555 q 235 580 218 597 q 201 614 177 614 q 153 614 136 597 q 118 581 118 555 q 118 531 135 514 q 153 497 177 497 q 201 497 218 514 q 235 531 235 555 z"},"Y":{"x_min":0,"x_max":573,"ha":573,"o":"m 459 719 l 567 719 l 567 712 q 546 710 533 702 q 520 694 503 668 l 327 402 l 327 72 q 327 32 337 19 q 348 7 382 7 l 382 0 l 190 0 l 190 7 q 245 3 245 50 l 244 71 l 244 375 l 68 667 q 40 713 6 712 l 6 719 l 176 719 l 176 712 q 152 712 152 694 q 152 685 164 665 l 309 426 l 468 667 q 472 671 478 681 q 483 692 483 696 q 483 712 462 712 l 459 712 z"},"c":{"x_min":0,"x_max":771,"ha":771,"o":""},"!":{"x_min":0,"x_max":167,"ha":167,"o":"m 139 719 l 114 449 q 111 423 105 392 q 100 361 94 297 q 87 233 87 209 l 87 190 l 78 190 l 60 525 q 56 602 51 647 q 46 693 38 701 q 29 710 5 710 l 5 719 z m 136 42 q 136 20 120 4 q 104 -11 83 -11 q 62 -11 46 4 q 30 19 30 42 q 30 64 45 80 q 60 95 83 95 q 105 95 121 80 q 136 65 136 42 z"},"/":{"x_min":0,"x_max":281,"ha":281,"o":"m 287 717 l 353 717 l -6 0 l -72 0 z"},"[":{"x_min":0,"x_max":313,"ha":313,"o":"m 281 -228 l 76 -228 l 76 719 l 281 719 l 281 686 l 109 686 l 109 -196 l 281 -196 z"},"6":{"x_min":0,"x_max":582,"ha":582,"o":"m 452 732 l 457 719 q 292 684 212 578 q 131 473 124 351 l 126 349 q 162 413 216 439 q 271 466 323 466 q 417 466 480 398 q 544 331 544 233 q 544 132 474 61 q 403 -10 306 -10 q 197 -10 117 77 q 38 163 38 292 q 38 452 144 576 q 250 701 452 732 z m 273 424 q 215 424 172 381 q 128 338 128 282 q 128 189 192 104 q 256 18 339 18 q 401 18 438 61 q 476 104 476 164 q 476 256 417 340 q 357 424 273 424 z"},"r":{"x_min":0,"x_max":792,"ha":792,"o":""},"2":{"x_min":0,"x_max":542,"ha":542,"o":"m 529 113 l 496 0 l 23 0 l 23 18 q 224 177 300 298 q 376 419 376 523 q 376 610 332 658 q 289 705 224 705 q 166 705 113 666 q 61 627 32 573 l 13 583 q 63 664 121 698 q 179 731 252 731 q 348 731 406 673 q 463 615 463 534 q 463 459 403 366 q 342 274 202 142 l 119 64 l 420 64 q 464 64 480 72 q 496 81 519 113 z"},"{":{"x_min":0,"x_max":480,"ha":480,"o":"m 411 -199 l 411 -216 q 328 -205 278 -149 q 227 -93 227 -26 q 227 4 238 50 q 238 50 240 59 l 246 92 q 250 114 250 125 q 250 158 223 190 q 195 223 138 230 l 138 249 q 196 258 223 289 q 250 321 250 354 q 250 381 239 426 q 227 472 227 505 q 227 574 279 629 q 331 684 411 695 l 411 677 q 300 649 300 562 q 300 534 312 489 q 323 444 323 409 q 323 358 289 314 q 254 269 178 242 l 178 240 q 248 215 286 168 q 323 120 323 70 q 323 37 312 -9 q 300 -54 300 -83 q 300 -170 411 -199 z"},"9":{"x_min":0,"x_max":582,"ha":582,"o":"m 130 -10 l 125 4 q 245 33 307 81 q 368 128 410 205 q 452 282 458 371 l 456 373 q 426 315 371 286 q 317 257 259 257 q 166 257 102 324 q 38 391 38 490 q 38 590 107 661 q 176 732 276 732 q 387 732 466 646 q 544 560 544 431 q 544 270 438 146 q 331 22 130 -10 z m 309 299 q 368 299 411 342 q 454 385 454 441 q 454 530 391 617 q 327 705 243 705 q 182 705 144 661 q 106 617 106 559 q 106 468 164 384 q 222 299 309 299 z"}," ":{"x_min":0,"x_max":291,"ha":291,"o":""},"I":{"x_min":0,"x_max":260,"ha":260,"o":"m 226 719 l 226 712 q 212 713 195 708 q 177 702 174 690 q 171 679 171 637 l 171 85 q 171 40 175 30 q 178 20 189 13 q 199 7 226 7 l 226 0 l 34 0 l 34 7 q 70 7 79 21 q 88 35 88 84 l 88 631 q 88 682 78 698 q 68 714 34 712 l 34 719 z"},"H":{"x_min":0,"x_max":740,"ha":740,"o":"m 567 359 l 172 359 l 172 82 q 172 43 176 32 q 179 21 189 14 q 199 7 224 7 l 224 0 l 38 0 l 38 7 q 89 3 89 56 l 89 635 q 89 684 81 697 q 73 710 38 712 l 38 719 l 224 719 l 224 712 q 193 710 183 700 q 172 690 172 660 l 172 379 l 567 379 l 567 636 q 567 680 559 696 q 552 712 517 712 l 517 719 l 701 719 l 701 712 q 679 712 668 707 q 658 702 654 691 q 650 680 650 636 l 650 84 q 650 42 654 31 q 658 21 667 14 q 677 7 701 7 l 701 0 l 517 0 l 517 7 q 547 7 557 19 q 567 31 567 85 z"},"4":{"x_min":0,"x_max":542,"ha":542,"o":"m 527 257 l 395 257 l 395 73 q 395 34 404 20 q 412 7 444 7 l 457 7 l 457 0 l 250 0 l 250 7 l 263 7 q 290 7 300 12 q 310 18 314 32 q 318 46 318 72 l 318 257 l 12 257 l 364 732 l 396 732 l 396 298 l 480 298 q 502 298 510 301 q 517 305 518 320 l 527 320 z m 65 297 l 318 297 l 318 634 l 316 636 z"},"~":{"x_min":0,"x_max":531,"ha":531,"o":"m 33 224 l 16 224 q 16 275 65 302 q 114 328 169 328 q 211 328 281 305 q 352 281 367 278 q 382 274 401 274 q 438 274 466 288 q 494 302 503 328 l 519 328 q 519 281 471 252 q 423 224 358 224 q 323 224 300 229 q 276 235 226 252 q 176 269 159 273 q 142 277 125 277 q 99 277 67 262 q 36 247 33 224 z"},"D":{"x_min":0,"x_max":844,"ha":844,"o":"m 38 712 l 38 719 l 368 719 q 494 719 567 699 q 640 680 694 637 q 749 595 780 529 q 812 462 812 381 q 812 302 779 226 q 746 150 689 95 q 633 41 570 20 q 507 0 376 0 l 38 0 l 38 7 l 47 7 q 73 7 82 28 q 90 49 90 105 l 90 629 q 90 688 80 700 q 70 712 38 712 z m 283 704 l 173 704 l 173 146 q 173 93 191 68 q 208 42 251 31 q 294 19 367 19 q 569 19 651 123 q 733 227 733 349 q 733 493 621 599 q 509 704 283 704 z"},"^":{"x_min":0,"x_max":549,"ha":549,"o":"m 243 720 l 305 720 l 535 223 l 473 223 l 275 656 l 75 223 l 13 223 z"},"0":{"x_min":0,"x_max":582,"ha":582,"o":"m 281 -11 q 173 -11 106 81 q 39 172 39 329 q 39 508 115 620 q 190 733 306 733 q 366 733 421 697 q 476 662 510 583 q 544 505 544 388 q 544 221 471 105 q 398 -11 281 -11 z m 314 15 q 371 15 418 85 q 466 155 466 300 q 466 483 414 595 q 363 707 272 707 q 208 707 163 635 q 117 563 117 417 q 117 243 171 129 q 225 15 314 15 z"},"F":{"x_min":0,"x_max":500,"ha":500,"o":"m 36 712 l 36 719 l 491 719 l 491 635 l 484 635 l 484 638 q 483 639 483 641 q 473 678 456 687 q 438 695 402 695 l 170 695 l 170 378 l 386 378 q 414 378 424 382 q 435 387 436 402 l 443 402 l 443 333 l 436 333 q 436 358 404 358 l 170 358 l 170 71 q 170 30 182 19 q 195 7 225 7 l 225 0 l 36 0 l 36 7 q 69 7 78 20 q 87 32 87 55 l 87 647 q 87 683 77 698 q 66 712 36 712 z"},"`":{"x_min":0,"x_max":333,"ha":333,"o":"m 73 920 l 161 920 l 244 769 l 221 769 z"},"k":{"x_min":0,"x_max":823,"ha":823,"o":""},"u":{"x_min":0,"x_max":750,"ha":750,"o":""},"]":{"x_min":0,"x_max":313,"ha":313,"o":"m 32 719 l 237 719 l 237 -228 l 32 -228 l 32 -195 l 204 -195 l 204 687 l 32 687 z"},"U":{"x_min":0,"x_max":750,"ha":750,"o":"m 709 0 l 573 0 l 573 111 q 469 -5 325 -5 q 218 -5 156 55 q 93 115 93 221 l 93 652 q 93 691 83 701 q 74 712 40 712 l 40 719 l 231 719 l 231 712 q 201 712 188 702 q 176 693 176 657 l 176 262 q 176 138 234 85 q 292 32 366 32 q 483 32 573 137 l 573 624 q 573 688 562 700 q 551 712 527 712 l 520 712 l 520 719 l 709 719 l 709 712 q 674 710 665 700 q 656 690 656 663 l 656 77 q 656 42 659 32 q 663 21 673 14 q 684 7 709 7 z"},"o":{"x_min":0,"x_max":813,"ha":813,"o":""},"N":{"x_min":0,"x_max":802,"ha":802,"o":"m 629 719 l 768 719 l 768 712 q 736 711 724 698 q 712 686 712 646 l 712 -9 l 138 602 l 138 70 q 138 44 142 32 q 146 20 153 16 q 161 11 190 7 l 190 0 l 52 0 l 52 7 q 89 7 98 20 q 107 33 107 83 l 107 570 q 107 634 89 674 q 71 715 7 712 l 7 719 l 142 719 l 681 145 l 681 653 q 681 694 667 703 q 652 712 629 712 z"},"+":{"x_min":0,"x_max":549,"ha":549,"o":"m 247 533 l 302 533 l 302 298 l 539 298 l 539 243 l 302 243 l 302 0 l 247 0 l 247 243 l 10 243 l 10 298 l 247 298 z"},"G":{"x_min":0,"x_max":760,"ha":760,"o":"m 743 7 l 743 0 l 453 0 q 370 0 307 18 q 244 36 179 87 q 114 137 73 212 q 33 288 33 366 q 33 452 84 538 q 134 623 228 677 q 321 730 439 730 q 545 730 663 683 l 693 600 l 686 600 q 648 648 583 679 q 518 711 438 711 q 299 711 210 606 q 121 501 121 346 q 121 282 136 231 q 150 181 191 132 q 231 83 277 59 q 323 36 380 27 q 438 18 471 19 l 510 20 q 575 22 592 32 q 608 42 608 82 l 608 191 q 608 223 595 234 q 582 245 557 243 l 557 250 l 743 250 l 743 243 q 712 243 701 231 q 691 219 691 184 l 691 71 q 691 37 700 22 q 709 7 733 7 z"},"q":{"x_min":0,"x_max":813,"ha":813,"o":""},"d":{"x_min":0,"x_max":844,"ha":844,"o":""},"1":{"x_min":0,"x_max":260,"ha":260,"o":"m 36 652 l 165 732 l 173 732 l 173 66 q 173 27 184 17 q 195 7 235 7 l 235 0 l 33 0 l 33 7 q 55 7 69 10 q 83 13 90 28 q 96 42 96 73 l 96 611 q 96 632 93 645 q 89 657 73 657 q 60 657 36 645 z"},"5":{"x_min":0,"x_max":563,"ha":563,"o":"m 149 655 l 122 452 q 180 480 259 480 q 368 480 438 413 q 508 347 508 243 q 508 142 433 66 q 358 -10 249 -10 q 188 -10 135 12 q 82 34 25 79 l 25 102 q 76 69 126 48 q 175 27 228 27 q 319 27 375 86 q 431 146 431 223 q 431 298 382 347 q 332 397 246 397 q 172 397 85 357 l 131 719 l 457 719 q 475 719 487 721 q 499 724 505 737 l 513 738 l 490 656 z"}}}
